<svg xmlns:xlink="http://www.w3.org/1999/xlink" xmlns="http://www.w3.org/2000/svg" class="inline-block w-6 h-6 relative z-1" width="24" height="24" viewBox="0 0 24 24"><path fill="#E68A1D" d="M19.963 4.097c-.138.011-.329.042-.667.098l-8.8 1.467-.483.089-.01.002-.001.01a7.55 7.55 0 0 0-.008.491v11.645.004a4 4 0 1 1-8-.004 4 4 0 0 1 4-4 3.98 3.98 0 0 1 2 .535V6.225l.014-.613c.015-.204.052-.441.161-.685a2 2 0 0 1 .717-.847 2.01 2.01 0 0 1 .649-.272c.178-.044.389-.079.603-.114l8.863-1.477.803-.113c.254-.02.564-.019.886.101a2 2 0 0 1 1.039.88c.171.298.223.603.245.857.02.235.02.516.02.811v11.147a1.01 1.01 0 0 1-.013.163 4 4 0 0 1-7.997-.163 4 4 0 0 1 4-4 3.98 3.98 0 0 1 2.01.541V4.786l-.013-.674-.002-.018-.018.001z"></path></svg>