<svg xmlns:xlink="http://www.w3.org/1999/xlink" xmlns="http://www.w3.org/2000/svg" class="inline-block w-6 h-6 relative z-1" width="24" height="24" viewBox="0 0 24 24"><path fill="#52BA69" d="M11.541 1.245a2 2 0 0 1 .914 0c.348.082.652.281.893.439h0l8.522 5.54c.206.133.465.3.662.536a2 2 0 0 1 .377.695c.09.294.089.602.089.847v5.551c-.002.214-.016.458-.088.693a2 2 0 0 1-.377.695c-.197.236-.456.403-.662.536h0l-8.522 5.54c-.242.158-.545.358-.893.439a2 2 0 0 1-.914 0c-.348-.082-.652-.281-.893-.439h0l-8.523-5.54c-.206-.133-.465-.3-.662-.536a2 2 0 0 1-.377-.695c-.09-.294-.089-.602-.089-.847V9.148c.002-.214.016-.458.088-.693a2 2 0 0 1 .377-.695c.197-.236.456-.403.662-.536h0l8.523-5.54c.242-.158.545-.358.893-.439zm-8.543 9.097l.004 4.612 7.996 5.202v-4.624l-8-5.19zm18 0l-8 5.19v4.624l7.996-5.207.004-4.607z"></path></svg>