<svg xmlns:xlink="http://www.w3.org/1999/xlink" xmlns="http://www.w3.org/2000/svg" class="inline-block w-6 h-6 fill-accent-1" width="24" height="24" viewBox="0 0 24 24"><path d="M21 14a1 1 0 0 1 1 1h0v.839l-.031 1.356c-.032.395-.104.789-.296 1.167a3 3 0 0 1-1.311 1.311c-.378.193-.772.264-1.167.296-.375.031-.829.031-1.357.031h0H17a1 1 0 1 1 0-2h0 .8l1.232-.024c.272-.022.372-.06.422-.085a1 1 0 0 0 .437-.437c.025-.05.063-.15.085-.422.023-.283.024-.656.024-1.232h0V15a1 1 0 0 1 1-1zM3 14a1 1 0 0 1 1 1v1.196l.023.836c.022.272.06.372.085.422a1 1 0 0 0 .437.437c.049.025.15.063.422.085.283.023.656.024 1.232.024H7a1 1 0 1 1 0 2h-.839c-.527 0-.982 0-1.356-.031-.395-.032-.789-.104-1.167-.296a3 3 0 0 1-1.311-1.311c-.193-.378-.264-.772-.296-1.167-.024-.3-.029-.651-.03-1.049V15a1 1 0 0 1 1-1zm5-6a1 1 0 0 1 1 1v6a1 1 0 1 1-2 0V9a1 1 0 0 1 1-1zm8 0a1 1 0 0 1 1 1h0v6a1 1 0 1 1-2 0h0V9a1 1 0 0 1 1-1zm-4 0a1 1 0 0 1 1 1v4a1 1 0 1 1-2 0V9a1 1 0 0 1 1-1zM7 4a1 1 0 1 1 0 2h0-1.196l-.836.023c-.272.022-.372.06-.422.085a1 1 0 0 0-.437.437c-.025.049-.063.15-.085.422-.017.213-.022.475-.023.836V9a1 1 0 1 1-2 0h0V7.854l.03-1.049c.032-.395.104-.789.296-1.167a3 3 0 0 1 1.311-1.311c.378-.193.772-.264 1.167-.296C5.18 4 5.634 4 6.161 4zm11.146 0l1.049.03c.395.032.789.104 1.167.296a3 3 0 0 1 1.311 1.311c.193.378.264.772.296 1.167.031.375.031.829.031 1.356h0V9a1 1 0 1 1-2 0h0v-.8l-.024-1.232c-.022-.272-.06-.372-.085-.422a1 1 0 0 0-.437-.437c-.05-.025-.15-.063-.422-.085A11.34 11.34 0 0 0 18.196 6H17a1 1 0 1 1 0-2h0z" fill="#D84C10"></path></svg>