<svg xmlns:xlink="http://www.w3.org/1999/xlink" xmlns="http://www.w3.org/2000/svg" class="inline-block w-6 h-6 fill-n-4 transition-colors group-hover:fill-n-3" width="24" height="24" viewBox="0 0 24 24"><path d="M19.5 2A2.5 2.5 0 0 1 22 4.5v15a2.5 2.5 0 0 1-2.5 2.5h-15A2.5 2.5 0 0 1 2 19.5v-15A2.5 2.5 0 0 1 4.5 2h15zM18 4h-4a2 2 0 0 0-2 2h0v12a2 2 0 0 0 2 2h0 4a2 2 0 0 0 2-2h0V6a2 2 0 0 0-2-2h0zM9.121 9.707a1 1 0 0 0-1.517 1.294h0L5 11a1 1 0 1 0 0 2h0l2.828-.001-.121.122a1 1 0 0 0 1.414 1.414h0l1.414-1.414c.271-.271.354-.659.25-1.002a1 1 0 0 0-.25-.998h0z" fill="#6C7275"></path></svg>