<svg xmlns:xlink="http://www.w3.org/1999/xlink" xmlns="http://www.w3.org/2000/svg" class="inline-block w-6 h-6 relative z-1" width="24" height="24" viewBox="0 0 24 24"><path fill="#D84C10" d="M11.998.998c6.075 0 11 4.925 11 11s-4.925 11-11 11-11-4.925-11-11 4.925-11 11-11zM9.962 7.915a.5.5 0 0 0-.365.199c-.1.133-.1.372-.1.849v6.069c0 .477 0 .716.1.849a.5.5 0 0 0 .365.199c.166.012.367-.117.768-.375l4.721-3.035c.348-.224.523-.336.583-.478a.5.5 0 0 0 0-.389c-.06-.142-.234-.254-.583-.478L10.73 8.29c-.401-.258-.602-.387-.768-.375z"></path></svg>